<svg xmlns="http://www.w3.org/2000/svg" viewBox="0 0 24 24"><path d="M6.943 14.523c-.4309-.0143-.7918.3289-.8066.767-.0146.438.323.8045.7536.8188.431.0146.792-.3288.8066-.7668.0146-.4379-.3227-.8046-.7536-.819"></path><path d="M6.8803 16.3999c-.5722-.019-1.0501-.5116-1.0297-1.1195.0193-.5816.5042-1.0683 1.1022-1.0483.5722.019 1.0501.5116 1.0297 1.1194-.0455.5807-.5302 1.0675-1.1022 1.0484m.0927-2.7757c-.91-.0303-1.6897.711-1.7209 1.6365-.0307.9252.6978 1.7168 1.6078 1.747.9104.0306 1.6899-.7108 1.7208-1.636.031-.9254-.6975-1.717-1.6077-1.7475m11.0097.8984c-.4309 0-.7803.355-.7803.7934 0 .4382.3494.7933.7803.7933.4311 0 .7806-.355.7806-.7933s-.3495-.7934-.7806-.7934"></path><path d="M17.9827 16.4005c-.5724 0-1.0665-.4762-1.0665-1.0845 0-.5819.4683-1.0845 1.0665-1.0845.5726 0 1.0668.4762 1.0668 1.0845-.0263.5818-.4944 1.0845-1.0668 1.0845m0-2.777c-.9104 0-1.6652.767-1.6652 1.693 0 .9256.7543 1.6923 1.6652 1.6923s1.6652-.767 1.6652-1.6928c0-.926-.7545-1.6926-1.6652-1.6926"></path><path d="M22.6211 11.7063l-2.54.4981-15.4268.0023v.008c-.4894.205-.909.6075-1.197 1.1494H.7993c-.0009-.4276.0072-1.611.115-2.5348.0528-.4511.216-1.1693.3323-1.597h3.4077v2.6305h.5603V9.2322h4.3988v2.6306h.5746V9.2322h4.3988v2.6306h.5282V9.2322h4.3987v2.6306h.5565V9.2322h2.551v2.474zm.5303-4.7034c-5.3103-.0365-5.1466.3159-5.597.5343h-7.0613l-.0915-.207C10.323 7.2012 10.1434 7 9.9613 7H5.5462c-.1414 0-.3843.1438-.465.268-.484-.0823-1.1099-.1141-1.792-.0769-1.6082.0875-2.781.4715-2.781.7815l-.0018.8743v.0004c-.072.357-.6837.9522-.4558 6.7467l1.6246.3378h3.2019a2.1235 2.1235 0 01-.0915-.6159c0-1.1769.9541-2.1308 2.1308-2.1308 1.1769 0 2.1308.954 2.1308 2.1308 0 .2142-.0323.421-.091.616h6.9871a2.1235 2.1235 0 01-.0915-.616c0-1.1769.9542-2.1308 2.1308-2.1308 1.177 0 2.1309.954 2.1309 2.1308 0 .197-.0287.3867-.0785.5677L24 15.4027V7.944c0-.2806-.3892-.9378-.8486-.941z"></path></svg>