<svg xmlns="http://www.w3.org/2000/svg" viewBox="0 0 24 24"><path d="M20.4508 16.7162c-.4518 0-.8177.3721-.8177.8312 0 .459.366.8312.8177.8312.4516 0 .8178-.3721.8178-.8312 0-.459-.3662-.8312-.8178-.8312"></path><path d="M20.4508 18.6837c-.6 0-1.1174-.499-1.1174-1.1362 0-.6097.4906-1.1364 1.1174-1.1364.5998 0 1.1175.499 1.1175 1.1364-.0276.6095-.5179 1.1362-1.1175 1.1362m0-2.9095c-.954 0-1.7447.8036-1.7447 1.7735 0 .9702.7905 1.7734 1.7447 1.7734.9543 0 1.7446-.8035 1.7446-1.7736 0-.9701-.7907-1.7733-1.7446-1.7733m-14.6177.942c-.4516 0-.8177.3721-.8177.8312 0 .459.3661.8312.8177.8312.4519 0 .818-.3721.818-.8312 0-.459-.3661-.8312-.818-.8312"></path><path d="M5.8331 18.6837c-.5997 0-1.1174-.499-1.1174-1.1362 0-.6097.4906-1.1364 1.1174-1.1364.6 0 1.1175.499 1.1175 1.1364-.0273.6095-.5179 1.1362-1.1175 1.1362m0-2.9095c-.9538 0-1.7445.8036-1.7445 1.7735 0 .9702.7905 1.7734 1.7445 1.7734.9543 0 1.7448-.8035 1.7448-1.7736 0-.9701-.7907-1.7733-1.7448-1.7733"></path><path d="M3.5877 11.1682l-1.6455-.1537H1.942c-.1462-.0172-.1396-.1537-.1103-.3395l.2902-1.8392c.04-.2411.2131-.4375.401-.4587l2.569-.2305a.2306.2306 0 01.2306.2305l-.1433 1.9363 1.4996-.0464-3.0911.9012zM24 18.0592c-.2442-.6594-.4886-1.319-.7326-1.9785-.3683-.776-1.072-1.5545-2.8165-1.5545-1.7448 0-2.664.8688-3.072 1.5888H9.6848v-.9106l1.0011-.181L9.5315 4.22s-.8103.1347-1.2493.3934c0 0-5.0442.4424-5.2864.5404C1.9673 5.57 1.0804 7.3145.7931 8.3003l.7189.1151s-.4732 1.702-.8186 3.1984c-.0003.0011-.5027.4532-.503.4543C.17 12.1606 0 13.9918 0 13.9918l.5527.5245-.2867.8116.1387 2.1241.4657 1.384 2.1093-.0222c.0003-.0004.6172-.2208.894-.322a2.2039 2.2039 0 01-.225-.9682c0-1.224.9921-2.2162 2.2161-2.2162 1.2238 0 2.2162.9922 2.2162 2.2162 0 .3278-.0731.6378-.2009.9177h10.5554a2.2038 2.2038 0 01-.201-.9177c0-1.224.9924-2.2162 2.2164-2.2162 1.224 0 2.2159.9922 2.2159 2.2162 0 .2935-.0584.5731-.162.8296L24 18.0592z"></path></svg>