<svg xmlns="http://www.w3.org/2000/svg" viewBox="0 0 77.1 31.129"><path d="M16 18.729a6.2 6.2 0 1 0 6.2 6.2 6.366 6.366 0 0 0-6.2-6.2zm0 10.3a4.1 4.1 0 1 1 4.1-4.1 4.118 4.118 0 0 1-4.1 4.1z"></path><path d="M16 21.929a3 3 0 1 0 3 3 2.946 2.946 0 0 0-3-3zm47.8 0a3 3 0 1 0 3 3 2.946 2.946 0 0 0-3-3z"></path><path d="M63.8 18.729a6.2 6.2 0 1 0 6.2 6.2 6.366 6.366 0 0 0-6.2-6.2zm0 10.3a4.1 4.1 0 1 1 4.1-4.1 4.055 4.055 0 0 1-4.1 4.1z"></path><path d="M76.2 20.829s.2-14.2-3.5-19.4c-1.3-1.6-35.8-2.3-41.8.3-3.7 1.6-4.6 2.1-11.7 8.3 0 0-10.2 2-17 5.7-.5 1.3-1 2.6-1.4 3.9l.3 2.1-1.1 1.3.5 3.3 8.4 1.3a7.661 7.661 0 1 1 14.3-5.5 7.465 7.465 0 0 1 0 5.5l33-.7h.3a7.631 7.631 0 1 1 14.7-4.1 8.207 8.207 0 0 1 .2 3.5l5.2-1 .5-2.2zm-68.4-3.5l-5.5 3.4 1.1-3.4 4.9-2zm2.1-2.6s3.3-1.1 10.8-3c4.9-4.4 7.8-6.6 10.7-7.9a34.416 34.416 0 0 1 6.4-1.2l-.2 8.7c1.2-.1 2.8-.1 4-.2l13.2-.7c8.1-.3 16.7.1 16.7.1a.494.494 0 0 0 .1.3c-12.7-.1-47.3 2-61.7 3.9z"></path></svg>