<svg xmlns="http://www.w3.org/2000/svg" width="111" height="13" viewBox="0 0 111 13" class="owc-header__claim"><g fill="#FFF" transform="translate(.1 .3)"><rect width="4.1" height="1" x="70.8" y="7.1"></rect><path d="M2.5,1.3 L2.1,10.8 L2.1,11 C2.1,11.8 2.3,12 3.6,12.1 L3.6,12.5 C2.7,12.4 2.3,12.4 1.8,12.4 C1.3,12.4 0.9,12.4 0,12.5 L0,12.1 C1.3,12 1.5,11.9 1.5,10.9 L1.9,1.9 L1.9,1.8 C1.9,1 1.6,0.8 0.4,0.7 L0.4,0.2 C1.1,0.3 1.4,0.3 1.9,0.3 C2.6,0.3 2.9,0.3 3.6,0.2 L7,9.5 L10.5,0.2 C11.3,0.3 11.7,0.3 12.3,0.3 C12.8,0.3 13.1,0.3 13.8,0.2 L13.8,0.7 C12.6,0.8 12.3,1 12.3,1.8 L12.3,1.9 L12.5,10.9 C12.5,11.9 12.7,12 14,12.1 L14,12.5 C12.8,12.4 12.4,12.4 11.7,12.4 C11,12.4 10.6,12.4 9.4,12.5 L9.4,12.1 C10.6,12 10.9,11.8 10.9,11 L10.9,10.9 L10.7,1.4 L7.6,9.5 L7.4,10.1 L7.1,10.8 L6.9,11.5 L6.7,12.1 L6.4,12.1 L6.2,11.5 L5.9,10.8 L5.7,10.1 L5.5,9.4 L2.5,1.3 Z M18.7,12.1 C17,12.1 16.3,10.8 16.3,7.9 L21.8,7.9 C21.8,5.1 20.6,3.6 18.4,3.6 C16.2,3.6 14.8,5.4 14.8,8.2 C14.8,11 16.2,12.7 18.5,12.7 C20.3,12.7 21.5,11.6 21.7,9.7 L21,9.7 C20.8,11.2 20,12.1 18.7,12.1 M16.3,7.2 C16.5,5.1 17.2,4 18.4,4 C19.6,4 20.2,5 20.3,7.2 L16.3,7.2 Z M22.8,4.2 L22.8,3.9 C23.8,3.8 24.5,3.7 25.2,3.5 C25.3,4.2 25.3,4.5 25.4,5 L25.4,5.2 C25.8,4.2 26.6,3.5 27.5,3.5 C28.4,3.5 29.1,4.1 29.1,5 C29.1,5.5 28.8,5.9 28.3,5.9 C27.9,5.9 27.5,5.6 27.5,5.3 C27.5,5.3 27.5,5.2 27.5,5.1 L27.5,4.9 L27.5,4.8 C27.5,4.5 27.3,4.4 26.9,4.4 C25.9,4.4 25.3,5.6 25.3,7.4 L25.3,11.2 C25.3,12 25.5,12.1 26.6,12.2 L26.6,12.6 C25.6,12.5 25.2,12.5 24.6,12.5 C23.9,12.5 23.6,12.5 22.5,12.6 L22.5,12.2 C23.6,12.1 23.8,12 23.8,11.2 L23.8,5.4 L23.8,5.1 C23.8,4.3 23.7,4.2 22.7,4.2 L22.8,4.2 L22.8,4.2 Z M36.2,3.4 L36.2,6.4 L35.8,6.4 C35.5,4.8 34.8,4 33.7,4 C32.3,4 31.5,5.5 31.5,8.1 C31.5,10.7 32.2,12 33.6,12 C34.7,12 35.4,11.2 35.6,9.6 L36.4,9.6 C36.2,11.6 35.1,12.6 33.5,12.6 C31.4,12.6 29.9,10.8 29.9,8.1 C29.9,5.4 31.4,3.5 33.5,3.5 C34.3,3.5 34.8,3.7 35.4,4.3 L35.9,3.4 L36.2,3.4 L36.2,3.4 Z M41.6,12.1 C39.9,12.1 39.2,10.8 39.2,7.9 L44.7,7.9 C44.7,5.1 43.5,3.6 41.3,3.6 C39.1,3.6 37.7,5.4 37.7,8.2 C37.7,11 39.1,12.7 41.4,12.7 C43.2,12.7 44.4,11.6 44.6,9.7 L43.9,9.7 C43.7,11.2 42.9,12.1 41.6,12.1 M39.2,7.2 C39.4,5.1 40.1,4 41.3,4 C42.5,4 43.1,5 43.2,7.2 L39.2,7.2 Z M53.2,10.6 L53.2,0 C52.3,0.2 51.5,0.4 50.4,0.5 L50.4,0.8 C51.6,0.8 51.7,0.9 51.7,1.9 L51.7,5.1 C51,4 50.5,3.7 49.5,3.7 C47.5,3.7 46.2,5.6 46.2,8.2 C46.2,10.8 47.6,12.7 49.6,12.7 C50.6,12.7 51.4,12.2 51.9,11.2 C52,11.9 52,12 52.2,12.7 C53,12.5 53.3,12.4 54.3,12.3 L54.6,12.3 L54.6,12 C53.3,11.8 53.2,11.7 53.2,10.6 M49.7,12.2 C48.4,12.2 47.7,10.8 47.7,8.2 C47.7,5.5 48.3,4.2 49.7,4.2 C51.1,4.2 51.8,5.6 51.8,8.3 C51.7,10.8 51,12.2 49.7,12.2 M59.1,12.1 C57.4,12.1 56.7,10.8 56.7,7.9 L62.2,7.9 C62.2,5.1 61,3.6 58.8,3.6 C56.6,3.6 55.2,5.4 55.2,8.2 C55.2,11 56.6,12.7 58.9,12.7 C60.7,12.7 61.9,11.6 62.1,9.7 L61.4,9.7 C61.2,11.2 60.4,12.1 59.1,12.1 M56.7,7.2 C56.9,5.1 57.6,4 58.8,4 C60,4 60.6,5 60.7,7.2 L56.7,7.2 Z M63.7,12.7 L63.7,9.6 L64.1,9.6 C64.4,11.3 65.2,12.1 66.5,12.1 C67.6,12.1 68.4,11.4 68.4,10.4 C68.4,9.8 68.1,9.4 67.2,8.9 L66.5,8.6 L65.6,8.3 C64.3,7.7 63.8,7.2 63.8,6.1 C63.8,4.6 64.9,3.7 66.6,3.7 C67.3,3.7 67.8,3.9 68.5,4.3 L68.8,3.5 L69.1,3.5 L69.1,6.3 L68.7,6.3 C68.5,4.8 67.9,4.1 66.8,4.1 C65.8,4.1 65.1,4.8 65.1,5.6 C65.1,6.3 65.4,6.6 67,7.3 L67.8,7.6 C69.2,8.2 69.7,8.8 69.7,9.9 C69.7,11.4 68.5,12.5 66.7,12.5 C65.9,12.5 65.2,12.3 64.5,11.7 L64.1,12.5 L63.7,12.5 L63.7,12.7 L63.7,12.7 Z M83.5,3.2 C83.5,2.2 83.1,1.4 82.4,0.9 C81.8,0.4 81.1,0.2 79.9,0.2 L75.1,0.2 L75.1,0.7 C76.4,0.8 76.6,0.9 76.6,1.9 L76.6,10.8 C76.6,11.8 76.5,11.9 75.1,12 L75.1,12.4 L79.7,12.4 C81.1,12.4 81.8,12.2 82.6,11.8 C83.5,11.2 84.1,10.1 84.1,8.9 C84.1,7.9 83.7,7 83,6.5 C82.6,6.2 82.2,6 81.5,5.9 C82.8,5.4 83.5,4.5 83.5,3.2 M78.1,0.8 L79.7,0.8 C81.2,0.8 81.9,1.6 81.9,3.3 C81.9,4.1 81.7,4.8 81.3,5.2 C80.9,5.7 80.4,5.8 79.4,5.8 L78.1,5.8 L78.1,0.8 Z M79.9,6.3 C80.9,6.3 81.4,6.5 81.8,6.9 C82.2,7.3 82.5,8.1 82.5,9 C82.5,10.8 81.6,11.9 79.9,11.9 L79.2,11.9 C78.2,11.9 78.1,11.8 78.1,10.9 L78.1,6.3 L79.9,6.3 Z M89.5,12.1 C87.8,12.1 87.1,10.8 87.1,7.9 L92.6,7.9 C92.6,5.1 91.4,3.6 89.2,3.6 C87,3.6 85.6,5.4 85.6,8.2 C85.6,11 87,12.7 89.3,12.7 C91.1,12.7 92.3,11.6 92.5,9.7 L91.8,9.7 C91.6,11.2 90.8,12.1 89.5,12.1 M87.1,7.2 C87.3,5.1 88,4 89.2,4 C90.4,4 91,5 91.1,7.2 L87.1,7.2 Z M93.5,4.3 L93.5,4 C94.6,3.9 95.2,3.7 95.9,3.4 C96,3.8 96,4.3 96.1,5 C96.8,4 97.5,3.6 98.6,3.6 C99.7,3.6 100.7,4.2 101,5.1 C101.2,5.5 101.3,6.1 101.3,6.8 L101.3,11.2 C101.3,12 101.5,12.1 102.6,12.2 L102.6,12.6 C101.6,12.5 101.3,12.5 100.6,12.5 C99.9,12.5 99.6,12.5 98.6,12.6 L98.6,12.2 C99.6,12.2 99.8,12 99.8,11.2 L99.8,6.7 C99.8,5.1 99.3,4.5 98.1,4.5 C96.9,4.5 96.2,5.3 96.2,6.8 L96.2,11.2 C96.2,11.9 96.4,12.1 97.4,12.2 L97.4,12.6 C96.4,12.5 96.1,12.5 95.4,12.5 C94.8,12.5 94.4,12.5 93.4,12.6 L93.4,12.2 C94.5,12.1 94.7,12 94.7,11.2 L94.7,5.5 L94.7,5.2 C94.7,4.4 94.6,4.3 93.7,4.3 C93.7,4.3 93.6,4.3 93.5,4.3 M103.3,12.5 L108.3,4.3 L106,4.3 C104.8,4.3 104.5,4.6 103.9,6.2 L103.5,6.2 L103.9,3.8 L110.2,3.8 L105.2,12 L107.3,12 C108.5,12 109.1,11.5 109.6,9.8 L110,9.8 L109.5,12.4 L103.3,12.5 C103.3,12.4 103.3,12.5 103.3,12.5 Z"></path></g></svg>